<?xml version="1.0" encoding="utf-8"?>
<!-- Generator: Adobe Illustrator 23.0.2, SVG Export Plug-In . SVG Version: 6.00 Build 0)  -->
<svg version="1.1" id="Layer_1" xmlns="http://www.w3.org/2000/svg" xmlns:xlink="http://www.w3.org/1999/xlink" x="0px" y="0px"
	 viewBox="0 0 176.3 43" style="enable-background:new 0 0 176.3 43;" xml:space="preserve">
<style type="text/css">
	.st0{fill:none;stroke:#FFFFFF;stroke-miterlimit:10;}
	.st1{fill:#061836;}
	.st2{fill:#FFFFFF;}
	.st3{fill:#EC2027;}
</style>
<g>
	<g>
		<rect x="1.7" y="11.7" class="st0" width="89.5" height="29.8"/>
		<rect x="1.7" y="11.7" class="st1" width="89.5" height="29.8"/>
		<polygon class="st2" points="7.6,17.4 7.6,35.4 11.9,35.4 11.9,24.3 18.4,35.5 22.7,35.4 22.7,17.4 18.3,17.4 18.3,27.9 
			12.1,17.4 		"/>
		<polygon class="st2" points="25.2,17.4 25.2,35.5 39.3,35.5 39.3,31.5 29.7,31.5 29.7,27.8 38.1,27.8 38.1,24 29.7,24 29.7,21.4 
			38.9,21.4 38.9,17.4 		"/>
		<polygon class="st2" points="40.1,17.4 45.3,35.5 49.8,35.4 52.2,23.8 54.6,35.5 58.7,35.4 63.8,17.4 59.2,17.4 56.7,28 
			54.6,17.4 49.7,17.4 47.7,27.4 45.3,17.4 		"/>
		<path class="st2" d="M74.2,23.3c0,0,0.6-2.2-2.9-2.6c-2.4-0.2-2.9,1.5-2.6,2.1c0.7,1.3,6.3,1.3,9,3.6c2.3,1.9,1.7,6.4-0.7,8
			c-2.9,2-7.5,1.6-9.5,0.7c-4.1-1.8-3.4-5.9-3.4-5.9h4.3c0,0-0.2,2.8,3.2,2.8c3.6,0,3.6-1.9,2.8-2.6c-0.8-0.8-7.5-1.1-9.4-3.9
			c-1.2-1.8-1.4-5.6,1.9-7.6s8.1-1,9.9,0.8c2.1,2.2,1.8,4.6,1.8,4.6L74.2,23.3z"/>
		<polygon class="st0" points="82.2,1.5 112.1,1.5 112,31.3 82.2,31.3 		"/>
		<polygon class="st3" points="82.2,1.5 112.1,1.5 112,31.3 82.2,31.3 		"/>
		<polygon class="st2" points="85.3,7.4 92.5,7.4 92.5,25.9 88.2,25.9 88.2,11.7 85.3,11.7 		"/>
		<path class="st2" d="M100.9,26.2c3.8-0.1,6.2-2.7,6.5-5.2c0.4-3.4-1.4-4.5-2.5-5.2c1.2-0.8,2-1.8,1.9-4.1c-0.3-3.1-2.9-4.7-6-4.7
			c-3,0-5.4,1.8-5.9,4.6c-0.4,2.4,1.2,3.7,1.9,4.2c-1.4,0.8-2.8,2.9-2.5,5.1C94.6,23.1,96.8,26.3,100.9,26.2z"/>
		<path class="st3" d="M102.7,12.5c0,1-0.8,1.9-1.8,1.9s-1.9-0.8-1.8-1.9c0-1.1,1-1.8,1.8-1.8C102,10.7,102.7,11.4,102.7,12.5z"/>
		<path class="st3" d="M103,19.8c0,1.2-0.8,2.1-2.1,2.2c-1.2,0-2.1-1-2.1-2.2s0.9-2.1,2.1-2.1C102.1,17.7,103,18.7,103,19.8z"/>
	</g>
	<g>
		<path class="st2" d="M149.7,18.5h-0.5H134h-0.3H115l1.9,1.9h4.3c1.2,0,2,0.3,2.4,1c-0.7,0.1-1.2,0.3-1.6,0.8
			c-0.4,0.5-0.6,1-0.6,1.6c0,0.8,0.2,1.4,0.7,1.9c0.5,0.5,1.1,0.7,1.8,0.7c0.6,0,1.1-0.2,1.5-0.6c0.4-0.4,0.6-0.9,0.6-1.5
			c0-0.2-0.1-0.5-0.2-0.9c0.1-0.1,0.3-0.1,0.4-0.1c0.6,0,1.1,0.2,1.6,0.7c0.4,0.4,0.7,1,0.7,1.7c0,0.9-0.3,1.6-1,2.2
			c-0.6,0.6-1.5,0.9-2.5,0.9c-2.7,0-5.1-2.4-7.3-7.2l-1-0.7c2.2,7.5,5.2,11.2,9.1,11.2c1.9,0,3.2-0.8,3.8-2.5c1.7,1.3,2.7,2.9,3.3,5
			l1,0.9V20.4h1.6c0,0.5,0.2,0.9,0.5,1.1c0.4,0.3,1.1,0.4,2.1,0.5c0.9,0.1,1.6,0.3,2.1,0.7c0.5,0.4,0.8,1,0.8,1.6
			c0,0.3-0.1,0.6-0.4,1c-0.3,0.4-0.6,0.8-0.9,1.2c-0.3,0.4-0.7,0.7-1,1c-0.3,0.3-0.5,0.4-0.6,0.4c-0.5,0-0.8-0.5-1.1-1.6l-1,0.9
			c1.1,2.5,2.3,3.7,3.6,3.7c0.6,0,1.6-0.9,2.8-2.7c1.1-1.7,2-2.5,2.7-2.5c0.6,0,1.1,0.4,1.5,1.3l-0.1,6.6l2.1,2V20.4h2.3
			c0,0.2,0,0.4,0.1,0.6c0.1,0.2,0.2,0.5,0.5,0.6c0.3,0.2,0.6,0.4,1.1,0.5c0.5,0.2,1.2,0.4,2,0.6c0.4,0.1,0.7,0.3,1.1,0.5
			c0.3,0.2,0.6,0.4,0.8,0.7c0.2,0.2,0.4,0.5,0.6,0.8c0.1,0.3,0.2,0.5,0.2,0.8c0,0.4-0.1,0.7-0.3,0.9c-0.6-0.3-1-0.4-1.4-0.4
			c-0.8,0-1.4,0.3-2,0.8c-0.5,0.5-0.8,1.2-0.8,2c0,0.8,0.3,1.5,0.8,2.1c0.5,0.6,1.3,0.8,2.2,0.8c1.2,0,2.2-0.6,2.8-1.8
			c1.9,0.6,3.3,2.3,4,5l0.8,0.8V20.4h3.6l-1.9-1.9H149.7z M131.7,30.8c-0.3-0.6-0.6-1.2-0.9-1.8c-0.3-0.5-0.6-1-1-1.5
			c0-0.9-0.1-1.7-0.4-2.5c-0.3-0.8-0.6-1.4-1.1-2c-0.5-0.6-1-1-1.6-1.3c-0.6-0.3-1.2-0.5-1.9-0.5l-0.6-0.9h7.3v8.3
			c0,0.1,0,0.4,0.1,0.7C131.7,29.7,131.8,30.2,131.7,30.8L131.7,30.8z M146.4,25.9c-0.8-1.9-1.7-2.8-2.7-2.8c-0.6,0-1.3,0.4-2.1,1.3
			l-0.1-0.1c0.1-0.4,0.2-0.8,0.2-1.3c0-1.3-0.5-2.2-1.5-2.5v-0.1h6.1l0,4.3C146.4,25,146.4,25.3,146.4,25.9L146.4,25.9z M161.2,31.2
			c0-0.2-0.2-0.4-0.3-0.7c-0.2-0.3-0.4-0.6-0.6-1c-0.2-0.3-0.5-0.7-0.7-0.9c-0.2-0.3-0.4-0.5-0.5-0.6c0.1-0.3,0.1-0.6,0.1-0.9
			c0-0.6-0.2-1.3-0.6-2.1c-0.4-0.8-0.9-1.5-1.6-2.1c-1.2-1.1-1.9-1.9-2.3-2.5h6.3v8.1c0,0.4,0,0.8,0,1.2
			C161.1,30.1,161.2,30.6,161.2,31.2L161.2,31.2z"/>
	</g>
</g>
</svg>
